<?xml version="1.0" encoding="utf-8"?>
<!-- Generator: Adobe Illustrator 23.0.2, SVG Export Plug-In . SVG Version: 6.00 Build 0)  -->
<svg version="1.1" id="Layer_1" xmlns="http://www.w3.org/2000/svg" xmlns:xlink="http://www.w3.org/1999/xlink" x="0px" y="0px"
	 viewBox="0 0 114.86 16.71" style="enable-background:new 0 0 114.86 16.71;" xml:space="preserve">
<style type="text/css">
	.st0{clip-path:url(#SVGID_2_);}
	.st1{fill:url(#Path_17_1_);}
	.st2{clip-path:url(#SVGID_4_);}
	.st3{fill:url(#Rectangle_9_1_);}
	.st4{clip-path:url(#SVGID_6_);}
	.st5{fill:url(#Rectangle_10_1_);}
	.st6{clip-path:url(#SVGID_8_);}
	.st7{fill:url(#Rectangle_11_1_);}
	.st8{clip-path:url(#SVGID_10_);}
	.st9{fill:url(#Rectangle_12_1_);}
</style>
<g id="_x30_1" transform="translate(152.02 402.2) rotate(90)">
	<g>
		<defs>
			<path id="SVGID_1_" d="M-393.39,149.02c3.45,0,6.24-0.37,6.24-0.82V40.84c0-0.45-2.8-0.82-6.24-0.82c-3.44,0-6.24,0.37-6.24,0.82
				v107.38C-399.63,148.66-396.83,149.02-393.39,149.02z"/>
		</defs>
		<clipPath id="SVGID_2_">
			<use xlink:href="#SVGID_1_"  style="overflow:visible;"/>
		</clipPath>
		<g id="Group_16" transform="translate(3.37 12.02)" class="st0">
			
				<linearGradient id="Path_17_1_" gradientUnits="userSpaceOnUse" x1="-348.804" y1="122.2971" x2="-346.1989" y2="122.2971" gradientTransform="matrix(0 -109 -12.49 0 1057.12 -37937.1328)">
				<stop  offset="0.074" style="stop-color:#1F252C"/>
				<stop  offset="0.117" style="stop-color:#242A31"/>
				<stop  offset="0.169" style="stop-color:#32383E"/>
				<stop  offset="0.225" style="stop-color:#4A4F55"/>
				<stop  offset="0.283" style="stop-color:#6B6F75"/>
				<stop  offset="0.305" style="stop-color:#7A7E83"/>
				<stop  offset="0.458" style="stop-color:#696D73"/>
				<stop  offset="0.679" style="stop-color:#161115"/>
				<stop  offset="1" style="stop-color:#040506"/>
			</linearGradient>
			<path id="Path_17" class="st1" d="M-396.76,137c3.45,0,6.24-0.37,6.24-0.82V28.82c0-0.45-2.8-0.82-6.24-0.82
				s-6.24,0.37-6.24,0.82v107.37C-403,136.64-400.2,137-396.76,137z"/>
		</g>
	</g>
	<g>
		<defs>
			<path id="SVGID_3_" d="M-393.39,149.02c3.45,0,6.24-0.37,6.24-0.82V40.84c0-0.45-2.8-0.82-6.24-0.82c-3.44,0-6.24,0.37-6.24,0.82
				v107.38C-399.63,148.66-396.83,149.02-393.39,149.02z"/>
		</defs>
		<clipPath id="SVGID_4_">
			<use xlink:href="#SVGID_3_"  style="overflow:visible;"/>
		</clipPath>
		<g id="Group_17" transform="translate(3.37 12.02)" class="st2">
			
				<linearGradient id="Rectangle_9_1_" gradientUnits="userSpaceOnUse" x1="-353.9056" y1="122.1925" x2="-351.3086" y2="122.1925" gradientTransform="matrix(0 -13.709 -12.528 0 1060.464 -4818.8643)">
				<stop  offset="0.142" style="stop-color:#BFAC74"/>
				<stop  offset="0.289" style="stop-color:#FFF8C1"/>
				<stop  offset="0.417" style="stop-color:#FDF5BE"/>
				<stop  offset="0.426" style="stop-color:#FDF4BD"/>
				<stop  offset="0.466" style="stop-color:#F8EEB7"/>
				<stop  offset="0.521" style="stop-color:#EBDCA6"/>
				<stop  offset="0.586" style="stop-color:#D6BE8A"/>
				<stop  offset="0.647" style="stop-color:#BD9B68"/>
				<stop  offset="0.768" style="stop-color:#BDA06B"/>
				<stop  offset="0.854" style="stop-color:#D6BF82"/>
				<stop  offset="1" style="stop-color:#FEF1A8"/>
			</linearGradient>
			
				<rect id="Rectangle_9" x="-403.59" y="26.56" transform="matrix(2.535182e-06 1 -1 2.535182e-06 -363.9075 429.5634)" class="st3" width="13.71" height="12.53"/>
		</g>
	</g>
	<g>
		<defs>
			<path id="SVGID_5_" d="M-393.39,149.02c3.45,0,6.24-0.37,6.24-0.82V40.84c0-0.45-2.8-0.82-6.24-0.82c-3.44,0-6.24,0.37-6.24,0.82
				v107.38C-399.63,148.66-396.83,149.02-393.39,149.02z"/>
		</defs>
		<clipPath id="SVGID_6_">
			<use xlink:href="#SVGID_5_"  style="overflow:visible;"/>
		</clipPath>
		<g id="Group_18" transform="translate(3.37 12.02)" class="st4">
			
				<linearGradient id="Rectangle_10_1_" gradientUnits="userSpaceOnUse" x1="-353.9056" y1="122.1925" x2="-351.3086" y2="122.1925" gradientTransform="matrix(0 -13.709 -12.528 0 1060.464 -4720.7861)">
				<stop  offset="0.142" style="stop-color:#BFAC74"/>
				<stop  offset="0.289" style="stop-color:#FFF8C1"/>
				<stop  offset="0.417" style="stop-color:#FDF5BE"/>
				<stop  offset="0.426" style="stop-color:#FDF4BD"/>
				<stop  offset="0.466" style="stop-color:#F8EEB7"/>
				<stop  offset="0.521" style="stop-color:#EBDCA6"/>
				<stop  offset="0.586" style="stop-color:#D6BE8A"/>
				<stop  offset="0.647" style="stop-color:#BD9B68"/>
				<stop  offset="0.768" style="stop-color:#BDA06B"/>
				<stop  offset="0.854" style="stop-color:#D6BF82"/>
				<stop  offset="1" style="stop-color:#FEF1A8"/>
			</linearGradient>
			
				<rect id="Rectangle_10" x="-403.59" y="124.64" transform="matrix(2.535182e-06 1 -1 2.535182e-06 -265.8295 527.6412)" class="st5" width="13.71" height="12.53"/>
		</g>
	</g>
	<g>
		<defs>
			<path id="SVGID_7_" d="M-393.39,149.02c3.45,0,6.24-0.37,6.24-0.82V40.84c0-0.45-2.8-0.82-6.24-0.82c-3.44,0-6.24,0.37-6.24,0.82
				v107.38C-399.63,148.66-396.83,149.02-393.39,149.02z"/>
		</defs>
		<clipPath id="SVGID_8_">
			<use xlink:href="#SVGID_7_"  style="overflow:visible;"/>
		</clipPath>
		<g id="Group_19" transform="translate(3.37 12.02)" class="st6">
			
				<linearGradient id="Rectangle_11_1_" gradientUnits="userSpaceOnUse" x1="-418.7414" y1="122.1925" x2="-416.1444" y2="122.1925" gradientTransform="matrix(0 -1.132 -12.528 0 1060.464 -431.5172)">
				<stop  offset="0.142" style="stop-color:#BFAC74"/>
				<stop  offset="0.289" style="stop-color:#FFF8C1"/>
				<stop  offset="0.417" style="stop-color:#FDF5BE"/>
				<stop  offset="0.426" style="stop-color:#FDF4BD"/>
				<stop  offset="0.466" style="stop-color:#F8EEB7"/>
				<stop  offset="0.521" style="stop-color:#EBDCA6"/>
				<stop  offset="0.586" style="stop-color:#D6BE8A"/>
				<stop  offset="0.647" style="stop-color:#BD9B68"/>
				<stop  offset="0.768" style="stop-color:#BDA06B"/>
				<stop  offset="0.854" style="stop-color:#D6BF82"/>
				<stop  offset="1" style="stop-color:#FEF1A8"/>
			</linearGradient>
			
				<rect id="Rectangle_11" x="-397.3" y="36.23" transform="matrix(2.535182e-06 1 -1 2.535182e-06 -354.237 439.2339)" class="st7" width="1.13" height="12.53"/>
		</g>
	</g>
	<g>
		<defs>
			<path id="SVGID_9_" d="M-393.39,149.02c3.45,0,6.24-0.37,6.24-0.82V40.84c0-0.45-2.8-0.82-6.24-0.82c-3.44,0-6.24,0.37-6.24,0.82
				v107.38C-399.63,148.66-396.83,149.02-393.39,149.02z"/>
		</defs>
		<clipPath id="SVGID_10_">
			<use xlink:href="#SVGID_9_"  style="overflow:visible;"/>
		</clipPath>
		<g id="Group_20" transform="translate(3.37 12.02)" class="st8">
			
				<linearGradient id="Rectangle_12_1_" gradientUnits="userSpaceOnUse" x1="-418.7414" y1="122.1925" x2="-416.1444" y2="122.1925" gradientTransform="matrix(0 -1.132 -12.528 0 1060.464 -352.8553)">
				<stop  offset="0.142" style="stop-color:#BFAC74"/>
				<stop  offset="0.289" style="stop-color:#FFF8C1"/>
				<stop  offset="0.417" style="stop-color:#FDF5BE"/>
				<stop  offset="0.426" style="stop-color:#FDF4BD"/>
				<stop  offset="0.466" style="stop-color:#F8EEB7"/>
				<stop  offset="0.521" style="stop-color:#EBDCA6"/>
				<stop  offset="0.586" style="stop-color:#D6BE8A"/>
				<stop  offset="0.647" style="stop-color:#BD9B68"/>
				<stop  offset="0.768" style="stop-color:#BDA06B"/>
				<stop  offset="0.854" style="stop-color:#D6BF82"/>
				<stop  offset="1" style="stop-color:#FEF1A8"/>
			</linearGradient>
			
				<rect id="Rectangle_12" x="-397.3" y="114.9" transform="matrix(2.535182e-06 1 -1 2.535182e-06 -275.575 517.8957)" class="st9" width="1.13" height="12.53"/>
		</g>
	</g>
</g>
</svg>
