<svg id="_001-settings" data-name="001-settings" xmlns="http://www.w3.org/2000/svg" width="35.538" height="35.538" viewBox="0 0 35.538 35.538">
  <g id="Group_5" data-name="Group 5">
    <g id="Group_4" data-name="Group 4">
      <path id="Path_7" data-name="Path 7" d="M34.965,14.33H32.271a14.755,14.755,0,0,0-1.819-4.383l1.906-1.906a.573.573,0,0,0,0-.81L28.307,3.178a.573.573,0,0,0-.81,0L25.59,5.084a14.739,14.739,0,0,0-4.382-1.816V.573A.573.573,0,0,0,20.635,0H14.9a.573.573,0,0,0-.573.573V3.267A14.738,14.738,0,0,0,9.948,5.086L8.041,3.178a.573.573,0,0,0-.81,0L3.178,7.231a.573.573,0,0,0,0,.81L5.084,9.947A14.754,14.754,0,0,0,3.267,14.33H.573A.573.573,0,0,0,0,14.9v5.732a.573.573,0,0,0,.573.573H3.267a14.755,14.755,0,0,0,1.819,4.383L3.178,27.5a.573.573,0,0,0,0,.81L7.231,32.36a.59.59,0,0,0,.81,0l1.906-1.906a14.754,14.754,0,0,0,4.383,1.816v2.694a.573.573,0,0,0,.573.573h5.732a.573.573,0,0,0,.573-.573V32.271a14.755,14.755,0,0,0,4.383-1.819L27.5,32.358a.573.573,0,0,0,.81,0L32.36,28.3a.573.573,0,0,0,0-.81l-1.906-1.906a14.753,14.753,0,0,0,1.816-4.38h2.694a.573.573,0,0,0,.573-.573V14.9A.573.573,0,0,0,34.965,14.33Zm-.573,5.732H31.812a.573.573,0,0,0-.562.459,13.618,13.618,0,0,1-2.006,4.832.573.573,0,0,0,.072.722L31.144,27.9,27.9,31.144l-1.827-1.827a.573.573,0,0,0-.722-.072A13.618,13.618,0,0,1,20.52,31.25a.573.573,0,0,0-.459.562v2.579H15.476V31.812a.573.573,0,0,0-.459-.562,13.618,13.618,0,0,1-4.832-2.006.573.573,0,0,0-.722.072L7.637,31.144,4.394,27.9l1.827-1.827a.573.573,0,0,0,.072-.722,13.618,13.618,0,0,1-2.006-4.832.573.573,0,0,0-.561-.459H1.146V15.476H3.726a.573.573,0,0,0,.562-.459,13.618,13.618,0,0,1,2.006-4.832.573.573,0,0,0-.072-.722L4.394,7.636,7.636,4.394,9.463,6.221a.573.573,0,0,0,.722.072,13.622,13.622,0,0,1,4.831-2.006.573.573,0,0,0,.459-.561V1.146h4.586V3.726a.573.573,0,0,0,.459.562,13.622,13.622,0,0,1,4.831,2.006.573.573,0,0,0,.722-.072L27.9,4.394l3.243,3.243L29.316,9.463a.573.573,0,0,0-.072.722,13.618,13.618,0,0,1,2.006,4.832.573.573,0,0,0,.562.459h2.579Z" fill="#fff"/>
    </g>
  </g>
  <g id="Group_7" data-name="Group 7" transform="translate(11.464 11.464)">
    <g id="Group_6" data-name="Group 6">
      <path id="Path_8" data-name="Path 8" d="M166.305,160a6.305,6.305,0,1,0,6.305,6.305A6.305,6.305,0,0,0,166.305,160Zm0,11.464a5.159,5.159,0,1,1,5.159-5.159A5.159,5.159,0,0,1,166.305,171.464Z" transform="translate(-160 -160)" fill="#fff"/>
    </g>
  </g>
</svg>
