<svg xmlns="http://www.w3.org/2000/svg" width="35.538" height="34.392" viewBox="0 0 35.538 34.392">
  <g id="_002-wifi" data-name="002-wifi" transform="translate(0)">
    <path id="Path_9" data-name="Path 9" d="M42.626,33.082a.571.571,0,0,0,.339.111.584.584,0,0,0,.259-.062.574.574,0,0,0,.314-.512V29.181a.572.572,0,0,0-.234-.462l-17.2-12.61a.572.572,0,0,0-.678,0l-17.2,12.61A.572.572,0,0,0,8,29.181V32.62a.573.573,0,0,0,.912.462l2.527-1.853V49.243H8.573a.573.573,0,0,0,0,1.146H42.965a.573.573,0,0,0,0-1.146H40.1V31.23Zm-3.673,16.16H12.586V30.388l13.183-9.668,13.183,9.668ZM26.108,19.548a.573.573,0,0,0-.678,0L9.146,31.489V29.471l16.623-12.19,16.623,12.19v2.018Z" transform="translate(-8 -15.998)" fill="#fff"/>
    <path id="Path_13" data-name="Path 13" d="M192,156.586A4.586,4.586,0,1,0,196.586,152,4.586,4.586,0,0,0,192,156.586Zm8.025,0a3.439,3.439,0,1,1-3.439-3.439A3.439,3.439,0,0,1,200.025,156.586Z" transform="translate(-178.817 -142.256)" fill="#fff"/>
    <path id="Path_14" data-name="Path 14" d="M200.6,320h-8.025a.573.573,0,0,0-.573.573v4.586a.573.573,0,0,0,.573.573H200.6a.573.573,0,0,0,.573-.573v-4.586A.573.573,0,0,0,200.6,320Zm-.573,4.586h-6.878v-3.439h6.878Z" transform="translate(-178.817 -295.219)" fill="#fff"/>
  </g>
</svg>
