<svg xmlns="http://www.w3.org/2000/svg" width="24.429" height="19.924" viewBox="0 0 24.429 19.924">
  <g id="crown" transform="translate(0.001 -15.603)">
    <path id="Path_1" data-name="Path 1" d="M20.212,31.9c0-.513-2.822-1.511-8-1.511s-8,1-8,1.511a.368.368,0,0,1-.059.192l.656,1.666c.01.023.031.035.044.055.492,1.347,4.768,1.716,7.358,1.716s6.866-.37,7.358-1.716c.013-.02.033-.032.044-.055l.655-1.664A.354.354,0,0,1,20.212,31.9Zm-8,2.849c-4.174,0-6.533-.783-6.627-1.2.089-.407,2.509-1.2,6.627-1.2s6.538.8,6.627,1.2C18.747,33.964,16.387,34.747,12.214,34.747ZM24.285,21.159a.386.386,0,0,0-.457-.029l-4.093,2.6-1.059-2.3a.394.394,0,0,0-.223-.2.38.38,0,0,0-.3.016L15.362,22.6l-1.374-2.066A2.76,2.76,0,0,0,15,18.392a2.79,2.79,0,0,0-5.58,0,2.76,2.76,0,0,0,1.015,2.144L9.122,22.518,6.265,21.241a.389.389,0,0,0-.513.192L4.671,23.773.6,21.131a.393.393,0,0,0-.458.026.388.388,0,0,0-.115.444L3.8,31.181c1.291-1.224,5.83-1.574,8.415-1.574s7.125.349,8.414,1.574L24.4,21.6A.388.388,0,0,0,24.285,21.159ZM5.338,24.185,6.3,22.108l2.387,1.066L7.2,25.41,5.328,24.2S5.337,24.19,5.338,24.185Zm6.566-1.6L8.078,28.312a.393.393,0,0,1-.324.173.381.381,0,0,1-.211-.061L4.84,26.7a.389.389,0,1,1,.42-.655l2.38,1.521,3.615-5.407a.39.39,0,1,1,.649.433Zm5.283,2.756L15.8,23.255l2.337-1.136.937,2.03Z" transform="translate(0 0)" fill="#ffe14d"/>
  </g>
</svg>
