<svg id="Layer_1" data-name="Layer 1" xmlns="http://www.w3.org/2000/svg" viewBox="0 0 100 50"><defs><style>.cls-1,.cls-2,.cls-3,.cls-4{isolation:isolate;}.cls-1,.cls-2{font-size:20.53px;font-family:TypoRoundRegularDemo, Typo Round Regular Demo;}.cls-1{fill:none;stroke:#0ac9fb;stroke-width:2px;}.cls-2,.cls-4,.cls-5{fill:#fff;}.cls-4{font-size:15.96px;font-family:TrebuchetMS-Bold, Trebuchet MS;font-weight:700;}</style></defs><title>logo</title><text class="cls-1" transform="translate(13.52 22.54)">GRAVITY</text><text class="cls-2" transform="translate(13.52 22.54)">GRAVITY</text><g id="BALLS-2" class="cls-3"><text class="cls-4" transform="translate(27.02 42.26)">BALLS</text></g><g id="Group_3" data-name="Group 3"><circle id="Ellipse_2" data-name="Ellipse 2" class="cls-5" cx="80.19" cy="34.27" r="3.1"/><path id="Rectangle_1" data-name="Rectangle 1" class="cls-5" d="M77.75,39.32h0a.66.66,0,0,1,.65.66v6.51a.65.65,0,0,1-.65.65h0a.65.65,0,0,1-.65-.65V40A.66.66,0,0,1,77.75,39.32Z"/><path id="Rectangle_2" data-name="Rectangle 2" class="cls-5" d="M80.36,39.32h0A.66.66,0,0,1,81,40v2.6a.65.65,0,0,1-.65.65h0a.66.66,0,0,1-.66-.65V40A.67.67,0,0,1,80.36,39.32Z"/><path id="Rectangle_3" data-name="Rectangle 3" class="cls-5" d="M83,39.32h0a.66.66,0,0,1,.65.66v.65a.65.65,0,0,1-.65.65h0a.65.65,0,0,1-.65-.65V40A.66.66,0,0,1,83,39.32Z"/></g></svg>