<svg xmlns="http://www.w3.org/2000/svg" width="21.238" height="21.333" viewBox="0 0 21.238 21.333">
  <g id="money" transform="translate(-0.333)">
    <circle id="Ellipse_1" data-name="Ellipse 1" cx="10.5" cy="10.5" r="10.5" transform="translate(0.333)" fill="#ffe14d"/>
    <path id="Path_2" data-name="Path 2" d="M266.667,10.667A10.679,10.679,0,0,0,256,0V21.333A10.679,10.679,0,0,0,266.667,10.667Z" transform="translate(-245.095)" fill="#fb3"/>
    <g id="Group_2" data-name="Group 2" transform="translate(2.78 2.542)">
      <g id="Group_1" data-name="Group 1">
        <path id="Path_3" data-name="Path 3" d="M69.125,77.25a8.125,8.125,0,1,1,8.125-8.125A8.134,8.134,0,0,1,69.125,77.25Z" transform="translate(-61 -61)" fill="#fb3"/>
      </g>
    </g>
    <path id="Path_4" data-name="Path 4" d="M264.125,69.125A8.134,8.134,0,0,0,256,61V77.25A8.134,8.134,0,0,0,264.125,69.125Z" transform="translate(-245.095 -58.458)" fill="#e68a2e"/>
    <g id="Cent_2_" transform="translate(7.78 5.036)">
      <path id="Path_5" data-name="Path 5" d="M184.75,125.9v-2.471c.719.176,1.25.639,1.25,1.171a.625.625,0,0,0,1.25,0,2.719,2.719,0,0,0-2.5-2.449v-.676a.625.625,0,1,0-1.25,0v.676a2.45,2.45,0,1,0,0,4.9v2.471c-.719-.176-1.25-.639-1.25-1.171a.625.625,0,0,0-1.25,0,2.718,2.718,0,0,0,2.5,2.449v.682a.625.625,0,0,0,1.25,0V130.8a2.45,2.45,0,1,0,0-4.9Zm-2.5-1.3c0-.532.531-.994,1.25-1.171v2.341C182.781,125.6,182.25,125.136,182.25,124.6Zm2.5,4.921v-2.341c.719.176,1.25.639,1.25,1.171S185.469,129.348,184.75,129.525Z" transform="translate(-181 -120.854)" fill="#ffe14d"/>
    </g>
    <path id="Path_6" data-name="Path 6" d="M256.625,131.485V130.8a2.45,2.45,0,1,0,0-4.9v-2.471c.719.176,1.25.639,1.25,1.171a.625.625,0,1,0,1.25,0,2.718,2.718,0,0,0-2.5-2.449v-.676a.625.625,0,0,0-.625-.625V132.11A.625.625,0,0,0,256.625,131.485Zm0-4.3c.719.176,1.25.639,1.25,1.17s-.531.994-1.25,1.171Z" transform="translate(-245.095 -115.818)" fill="#fb3"/>
  </g>
</svg>
